<svg xmlns="http://www.w3.org/2000/svg" width="16" height="16">
<path d="M14.125 1.25h-.75V0h-1.25v1.25h-8.25V0h-1.25v1.25h-.75A1.877 1.877 0 0 0 0 3.125v11A1.877 1.877 0 0 0 1.875 16h12.25A1.877 1.877 0 0 0 16 14.125v-11a1.877 1.877 0 0 0-1.875-1.875Zm0 13.5H1.875a.626.626 0 0 1-.625-.625v-8.25h13.5v8.25c0 .345-.28.625-.625.625ZM1.875 2.5h.75v1.25h1.25V2.5h8.25v1.25h1.25V2.5h.75c.345 0 .625.28.625.625v1.5H1.25v-1.5a.626.626 0 0 1 .625-.625Zm.5 4.688h1.25v1.25h-1.25v-1.25Zm5 0h1.25v1.25h-1.25v-1.25Zm2.5 0h1.25v1.25h-1.25v-1.25Zm-5 0h1.25v1.25h-1.25v-1.25Zm7.5 0h1.25v1.25h-1.25v-1.25Zm-10 5h1.25v1.25h-1.25v-1.25Zm5 0h1.25v1.25h-1.25v-1.25Zm2.5 0h1.25v1.25h-1.25v-1.25Zm-5 0h1.25v1.25h-1.25v-1.25Zm-2.5-2.5h1.25v1.25h-1.25v-1.25Zm5 0h1.25v1.25h-1.25v-1.25Zm2.5 0h1.25v1.25h-1.25v-1.25Zm-5 0h1.25v1.25h-1.25v-1.25Zm7.5 0h1.25v1.25h-1.25v-1.25Z" fill="#ffffff" fill-rule="evenodd" data-name="Shape 1"/>
</svg>