<svg xmlns="http://www.w3.org/2000/svg" width="18" height="13" viewBox="0 0 18 13"><g><g opacity=".8"><path fill="#222933" d="M16.714 12.994H1.286a1.308 1.308 0 0 1-.928-.382A1.21 1.21 0 0 1 0 11.757V1.858C0 1.176.577.621 1.286.621h15.428c.709 0 1.286.555 1.286 1.237v9.899a1.209 1.209 0 0 1-.398.894 1.308 1.308 0 0 1-.888.343zM.857 1.858v9.728l5.966-5.742L.858 1.826a.4.4 0 0 0 0 .032zm15.68 10.311l-6.073-5.844-.727.49A1.32 1.32 0 0 1 9 7.036a1.32 1.32 0 0 1-.737-.223l-.727-.49-6.073 5.845zm.606-10.31a.4.4 0 0 0-.002-.033l-5.964 4.018 5.966 5.742zm-8.389 4.28c.147.098.345.098.492 0l6.966-4.693H1.788z"/></g></g></svg>